# xmcd
#
# Track frame offsets:
#	150
#	27444
#	50331
#	70320
#	81925
#	94786
#	108130
#	127369
#	141489
#	155501
#	168731
#	187375
#	197456
#	213089
#
# Disc length: 3018 seconds
# Revision: 0
# Processed by: cddbd v1.5.2PL0 Copyright (c) Steve Scherf et al.
# Submitted via: dBpowerAMP V12.0
#
DISCID=d20bc80e
DTITLE=Various Artist - Drunken Moon 2013
DYEAR=2013
DGENRE=Blues Rock
TTITLE0=Rattlin Bones Blackwood - Stagger Lee
TTITLE1=Da Basstard - Call Of The Wild
TTITLE2=Chris Russell's Chicken Walk - Someday My Sun Gonna Shine
TTITLE3=The Floors - Built From Bones
TTITLE4=Mesa Cosa - 666
TTITLE5=Digger and The Pussycats - Fashion Victim
TTITLE6=King Of The North - Hope Is For The Faithless
TTITLE7=Batpiss - Drag Your Body
TTITLE8=Transvaal Diamond Syndicate - Dig Man Dig!
TTITLE9=Brothers Grim And The Blue Murders - Baby Girl
TTITLE10=Guthrie - Blues Ate My Homework
TTITLE11=Sheriff - Bobby Sue
TTITLE12=The Yard Apes - I Don't Give A Shit Anymore
TTITLE13=Bare White Knuckles - Bottles N Bones
EXTD=
EXTT0=
EXTT1=
EXTT2=
EXTT3=
EXTT4=
EXTT5=
EXTT6=
EXTT7=
EXTT8=
EXTT9=
EXTT10=
EXTT11=
EXTT12=
EXTT13=
PLAYORDER=
